<?xml version="1.0" encoding="UTF-8" standalone="no"?><!DOCTYPE svg PUBLIC "-//W3C//DTD SVG 1.1//EN" "http://www.w3.org/Graphics/SVG/1.1/DTD/svg11.dtd"><svg width="100%" height="100%" viewBox="0 0 256 256" version="1.1" xmlns="http://www.w3.org/2000/svg" xmlns:xlink="http://www.w3.org/1999/xlink" xml:space="preserve" xmlns:serif="http://www.serif.com/" style="fill-rule:evenodd;clip-rule:evenodd;stroke-linejoin:round;stroke-miterlimit:2;"><path d="M221.362,103.13c-1.341,-9.738 -6.705,-18.194 -16.385,-25.833l-5.598,-3.79l-3.732,5.656c-4.782,7.289 -7.173,17.436 -6.415,27.174c0.35,3.382 1.458,9.563 4.899,14.87c-3.441,1.924 -10.263,4.49 -19.36,4.315l-173.771,-0l-0.35,2.041c-1.633,9.738 -1.633,40.235 17.902,63.618c14.87,17.786 37.087,26.824 66.126,26.824c62.978,0 109.511,-29.331 131.378,-82.745c8.572,0.175 27.057,0.058 36.562,-18.31c0.233,-0.408 0.816,-1.516 2.449,-5.015l0.933,-1.924l-5.306,-3.616c-5.832,-3.79 -19.069,-5.248 -29.332,-3.265Zm-81.404,-65.135l-26.415,-0l-0,24.316l26.415,0l0,-24.316Zm0,29.214l-26.415,0l-0,24.317l26.415,-0l0,-24.317Zm-31.255,0l-26.415,0l-0,24.317l26.415,-0l0,-24.317Zm-31.197,0l-26.416,0l0,24.317l26.416,-0l-0,-24.317Zm-31.256,29.215l-26.415,-0l-0,24.316l26.415,0l0,-24.316Zm31.256,-0l-26.416,-0l0,24.316l26.416,0l-0,-24.316Zm31.197,-0l-26.415,-0l-0,24.316l26.415,0l0,-24.316Zm31.255,-0l-26.415,-0l-0,24.316l26.415,0l0,-24.316Zm31.256,-0l-26.416,-0l0,24.316l26.416,0l-0,-24.316Z" style="fill:#1d63ed;fill-rule:nonzero;"/></svg>