<?xml version="1.0" encoding="UTF-8" standalone="no"?><!DOCTYPE svg PUBLIC "-//W3C//DTD SVG 1.1//EN" "http://www.w3.org/Graphics/SVG/1.1/DTD/svg11.dtd"><svg width="100%" height="100%" viewBox="0 0 256 256" version="1.1" xmlns="http://www.w3.org/2000/svg" xmlns:xlink="http://www.w3.org/1999/xlink" xml:space="preserve" xmlns:serif="http://www.serif.com/" style="fill-rule:evenodd;clip-rule:evenodd;stroke-linejoin:round;stroke-miterlimit:2;"><g><rect x="0" y="0" width="256" height="256" style="fill:none;fill-rule:nonzero;"/><g><clipPath id="_clip1"><path d="M191.213,63.12c-0.434,-2.553 -2.668,-4.44 -5.258,-4.44c-1.412,0 -2.769,0.562 -3.768,1.56l-27.68,27.76l-21.787,-41.48c-0.921,-1.75 -2.742,-2.85 -4.72,-2.85c-1.978,-0 -3.799,1.1 -4.72,2.85l-11.907,22.667l-29.866,-55.694c-0.927,-1.731 -2.738,-2.816 -4.702,-2.816c-2.621,0 -4.873,1.932 -5.272,4.523l-28.866,184.8l77.2,43.28c4.842,2.704 10.757,2.704 15.6,-0l77.866,-43.28l-22.12,-136.88Z"/></clipPath><g clip-path="url(#_clip1)"><path d="M42.667,200l28.88,-184.813c0.402,-2.586 2.652,-4.513 5.269,-4.513c1.966,0 3.778,1.086 4.704,2.819l29.867,55.707l11.906,-22.667c0.921,-1.75 2.743,-2.85 4.72,-2.85c1.978,0 3.8,1.1 4.72,2.85l80.6,153.467l-170.666,0Z" style="fill:#ffa000;fill-rule:nonzero;"/><path d="M141.333,12l-141.333,-12l0,256l42.667,-56l98.666,-188Z" style="fill:url(#_Linear2);fill-rule:nonzero;"/><path d="M142.44,128.013l-31.067,-58.826l-68.706,130.813l99.773,-71.987Z" style="fill:#f57c00;fill-rule:nonzero;"/><rect x="0" y="0" width="256" height="256" style="fill:url(#_Linear3);fill-rule:nonzero;"/><path d="M213.333,200l-22.12,-136.88c-0.434,-2.553 -2.668,-4.44 -5.258,-4.44c-1.412,0 -2.769,0.562 -3.768,1.56l-139.52,139.76l77.2,43.293c4.842,2.704 10.757,2.704 15.6,0l77.866,-43.293Z" style="fill:#ffca28;fill-rule:nonzero;"/><path d="M191.213,63.12c-0.434,-2.553 -2.668,-4.44 -5.258,-4.44c-1.412,0 -2.769,0.562 -3.768,1.56l-27.68,27.76l-21.787,-41.48c-0.921,-1.75 -2.742,-2.85 -4.72,-2.85c-1.978,-0 -3.799,1.1 -4.72,2.85l-11.907,22.667l-29.866,-55.694c-0.927,-1.731 -2.738,-2.816 -4.702,-2.816c-2.621,0 -4.873,1.932 -5.272,4.523l-28.866,184.8l-0.107,-0l0.093,0.107l0.76,0.373l111.027,-111.147l27.707,-27.733c1,-1.005 2.362,-1.571 3.78,-1.571c2.594,-0 4.831,1.893 5.26,4.451l21.933,135.653l0.213,-0.133l-22.12,-136.88Zm-148.293,136.627l28.627,-183.227c0.398,-2.591 2.65,-4.523 5.271,-4.523c1.964,0 3.775,1.085 4.702,2.816l29.867,55.707l11.906,-22.667c0.921,-1.75 2.743,-2.85 4.72,-2.85c1.978,0 3.8,1.1 4.72,2.85l21.334,40.574l-111.147,111.32Z" style="fill:#fff;fill-opacity:0.2;fill-rule:nonzero;"/><path d="M135.467,241.987c-4.843,2.703 -10.758,2.703 -15.6,-0l-77.014,-43.2l-0.186,1.213l77.2,43.28c4.842,2.704 10.757,2.704 15.6,0l77.866,-43.28l-0.2,-1.227l-77.666,43.214Z" style="fill:#a52714;fill-opacity:0.2;fill-rule:nonzero;"/><path d="M191.213,63.12c-0.434,-2.553 -2.668,-4.44 -5.258,-4.44c-1.412,0 -2.769,0.562 -3.768,1.56l-27.68,27.76l-21.787,-41.48c-0.921,-1.75 -2.742,-2.85 -4.72,-2.85c-1.978,-0 -3.799,1.1 -4.72,2.85l-11.907,22.667l-29.866,-55.694c-0.927,-1.731 -2.738,-2.816 -4.702,-2.816c-2.621,0 -4.873,1.932 -5.272,4.523l-28.866,184.8l77.2,43.28c4.842,2.704 10.757,2.704 15.6,-0l77.866,-43.28l-22.12,-136.88Z" style="fill:url(#_Linear4);fill-rule:nonzero;"/></g></g><circle cx="192" cy="192" r="53.333" style="fill:#fff;"/><path d="M192,194.667l-24,10.666l0,-10.666l24,-10.667l24,10.667l0,9.333l0,-2l0,3.333l-24,-10.666Zm0,-29.334l24,10.667l0,10.667l-24,-10.667l-24,10.667l0,-10.667l24,-10.667Zm9,38.667l12,5.333l-21,9.334l0,-10.667l9,-4Z" style="fill-opacity:0.54;"/></g><defs><linearGradient id="_Linear2" x1="0" y1="0" x2="1" y2="0" gradientUnits="userSpaceOnUse" gradientTransform="matrix(-10.6667,-5.57333,5.57333,-10.6667,75.8667,136.72)"><stop offset="0" style="stop-color:#a52714;stop-opacity:0.12"/><stop offset="0.4" style="stop-color:#a52714;stop-opacity:0.06"/><stop offset="0.8" style="stop-color:#a52714;stop-opacity:0"/><stop offset="1" style="stop-color:#a52714;stop-opacity:0"/></linearGradient><linearGradient id="_Linear3" x1="0" y1="0" x2="1" y2="0" gradientUnits="userSpaceOnUse" gradientTransform="matrix(-4.77333,-4.77333,4.77333,-4.77333,121.187,121.213)"><stop offset="0" style="stop-color:#a52714;stop-opacity:0.16"/><stop offset="0.5" style="stop-color:#a52714;stop-opacity:0.04"/><stop offset="1" style="stop-color:#a52714;stop-opacity:0"/></linearGradient><linearGradient id="_Linear4" x1="0" y1="0" x2="1" y2="0" gradientUnits="userSpaceOnUse" gradientTransform="matrix(178.249,178.249,-178.249,178.249,36.2507,53.708)"><stop offset="0" style="stop-color:#fff;stop-opacity:0.1"/><stop offset="1" style="stop-color:#fff;stop-opacity:0"/></linearGradient></defs></svg>