<?xml version="1.0" encoding="UTF-8" standalone="no"?><!DOCTYPE svg PUBLIC "-//W3C//DTD SVG 1.1//EN" "http://www.w3.org/Graphics/SVG/1.1/DTD/svg11.dtd"><svg width="100%" height="100%" viewBox="0 0 256 256" version="1.1" xmlns="http://www.w3.org/2000/svg" xmlns:xlink="http://www.w3.org/1999/xlink" xml:space="preserve" xmlns:serif="http://www.serif.com/" style="fill-rule:evenodd;clip-rule:evenodd;stroke-linejoin:round;stroke-miterlimit:2;"><circle cx="128" cy="132.116" r="125.85" style="fill:#fff;"/><path d="M128.106,0c-70.839,0 -128.106,57.784 -128.106,129.271c0,57.144 36.693,105.514 87.595,122.634c6.364,1.287 8.696,-2.781 8.696,-6.204c-0,-2.996 -0.21,-13.269 -0.21,-23.972c-35.636,7.706 -43.057,-15.41 -43.057,-15.41c-5.727,-14.982 -14.213,-18.833 -14.213,-18.833c-11.663,-7.919 0.85,-7.919 0.85,-7.919c12.938,0.857 19.727,13.27 19.727,13.27c11.451,19.688 29.904,14.125 37.327,10.7c1.06,-8.347 4.455,-14.125 8.061,-17.335c-28.422,-2.997 -58.326,-14.126 -58.326,-63.781c-0,-14.125 5.087,-25.682 13.148,-34.67c-1.272,-3.21 -5.727,-16.482 1.274,-34.245c0,-0 10.817,-3.425 35.206,13.269c10.442,-2.829 21.211,-4.268 32.028,-4.281c10.817,-0 21.843,1.499 32.025,4.281c24.392,-16.694 35.209,-13.269 35.209,-13.269c7.001,17.763 2.543,31.035 1.271,34.245c8.274,8.988 13.151,20.545 13.151,34.67c-0,49.655 -29.904,60.569 -58.539,63.781c4.668,4.066 8.696,11.77 8.696,23.97c-0,17.335 -0.21,31.248 -0.21,35.527c-0,3.425 2.334,7.493 8.695,6.209c50.903,-17.125 87.595,-65.493 87.595,-122.637c0.21,-71.487 -57.266,-129.271 -127.893,-129.271Z" style="fill:#24292f;"/></svg>