<?xml version="1.0" encoding="UTF-8" standalone="no"?><!DOCTYPE svg PUBLIC "-//W3C//DTD SVG 1.1//EN" "http://www.w3.org/Graphics/SVG/1.1/DTD/svg11.dtd"><svg width="100%" height="100%" viewBox="0 0 256 256" version="1.1" xmlns="http://www.w3.org/2000/svg" xmlns:xlink="http://www.w3.org/1999/xlink" xml:space="preserve" xmlns:serif="http://www.serif.com/" style="fill-rule:evenodd;clip-rule:evenodd;stroke-linejoin:round;stroke-miterlimit:2;"><path d="M162.667,82.4l8,0l22.4,-22.4l1.066,-9.6c-17.6,-16 -41.066,-25.6 -66.666,-25.6c-46.4,0 -85.334,31.467 -96.534,74.133c2.667,-1.6 7.467,-0.533 7.467,-0.533l44.8,-7.467c0,0 2.133,-3.733 3.2,-3.733c10.667,-11.733 25.6,-18.133 41.067,-18.133c13.866,0.533 26.133,5.333 35.2,13.333Z" style="fill:#ea4335;fill-rule:nonzero;"/><path d="M224.533,99.467c-5.333,-19.2 -16,-35.734 -30.4,-48.534l-31.466,31.467c12.8,10.133 20.8,25.6 20.8,43.2l-0,5.333c15.466,0 27.733,12.267 27.733,27.734c-0,15.466 -12.267,27.733 -27.733,27.733l-55.467,-0l-5.333,5.867l-0,33.6l5.333,5.333l55.467,-0c40,-0 72.533,-32.533 72.533,-72.533c0,-24.534 -12.267,-46.4 -31.467,-59.2Z" style="fill:#4285f4;fill-rule:nonzero;"/><path d="M72.533,231.2l55.467,-0l0,-44.267l-55.467,0c-3.733,0 -8,-1.066 -11.2,-2.666l-8,2.666l-22.4,22.4l-2.133,7.467c12.267,9.067 27.733,14.4 43.733,14.4Z" style="fill:#34a853;fill-rule:nonzero;"/><path d="M72.533,86.667c-40,-0 -72.533,32.533 -72.533,72c0,23.466 11.2,44.266 28.8,57.6l32,-32c-10.133,-4.267 -16.533,-14.4 -16.533,-25.6c-0,-15.467 12.266,-27.734 27.733,-27.734c11.2,0 20.8,6.934 25.6,16.534l32,-32c-12.8,-17.6 -33.6,-28.8 -57.067,-28.8Z" style="fill:#fbbc05;fill-rule:nonzero;"/></svg>