<?xml version="1.0" encoding="UTF-8" standalone="no"?><!DOCTYPE svg PUBLIC "-//W3C//DTD SVG 1.1//EN" "http://www.w3.org/Graphics/SVG/1.1/DTD/svg11.dtd"><svg width="100%" height="100%" viewBox="0 0 256 256" version="1.1" xmlns="http://www.w3.org/2000/svg" xmlns:xlink="http://www.w3.org/1999/xlink" xml:space="preserve" xmlns:serif="http://www.serif.com/" style="fill-rule:evenodd;clip-rule:evenodd;stroke-linejoin:round;stroke-miterlimit:2;"><path d="M125.864,133.622c-6.409,-10.148 -11.216,-18.693 -17.625,-34.716c-10.682,-27.238 66.227,-51.806 34.715,-98.806c13.353,32.579 -48.601,52.875 -54.476,80.113c-4.807,24.034 37.386,53.409 37.386,53.409Z" style="fill:#f44336;fill-rule:nonzero;"/><path d="M127.466,84.486c-1.068,16.022 14.42,24.568 14.954,36.318c0.534,9.613 -9.079,17.625 -9.079,17.625c-0,-0 17.625,-3.205 22.966,-18.159c5.875,-16.023 -11.75,-27.239 -10.148,-40.591c1.602,-12.284 38.454,-35.784 38.454,-35.784c0,0 -54.477,4.273 -57.147,40.591Z" style="fill:#f44336;fill-rule:nonzero;"/><path d="M179.806,134.69c11.216,-2.67 20.83,4.807 20.83,12.818c-0,18.693 -25.636,36.318 -25.636,36.318c-0,-0 40.056,-4.807 40.056,-35.25c-0.534,-20.295 -19.761,-25.636 -35.25,-13.886Zm-18.693,14.954c0,0 12.284,-9.079 15.489,-12.284c-30.443,6.409 -100.408,7.478 -100.408,1.603c-0,-5.341 22.431,-10.682 22.431,-10.682c0,-0 -49.67,-0.534 -49.67,14.42c0,14.955 65.159,16.023 112.158,6.943Z" style="fill:#1565c0;fill-rule:nonzero;"/><path d="M153.102,163.531c-28.841,9.613 -82.249,6.409 -66.227,-6.409c-7.477,-0 -19.227,6.409 -19.227,12.284c0,11.75 57.682,20.829 100.409,3.738l-14.955,-9.613Z" style="fill:#1565c0;fill-rule:nonzero;"/><path d="M93.818,183.826c-10.681,-0 -17.09,6.943 -17.09,11.75c-0,15.488 62.488,17.091 87.59,1.068l-15.489,-10.682c-19.227,8.546 -65.692,9.614 -55.011,-2.136Z" style="fill:#1565c0;fill-rule:nonzero;"/><path d="M206.511,208.928c-0,-5.875 -6.943,-9.079 -9.08,-10.148c14.421,34.182 -143.135,31.512 -143.135,11.216c-0,-4.807 11.75,-9.079 22.432,-6.943l-9.08,-5.341c-21.363,-3.204 -35.784,5.875 -35.784,13.352c0,35.25 174.647,33.648 174.647,-2.136Z" style="fill:#1565c0;fill-rule:nonzero;"/><path d="M224.136,221.212c-26.705,26.17 -94,35.784 -161.829,19.761c67.829,28.841 161.295,12.818 161.829,-19.761Z" style="fill:#1565c0;fill-rule:nonzero;"/></svg>