<?xml version="1.0" encoding="UTF-8" standalone="no"?><!DOCTYPE svg PUBLIC "-//W3C//DTD SVG 1.1//EN" "http://www.w3.org/Graphics/SVG/1.1/DTD/svg11.dtd"><svg width="100%" height="100%" viewBox="0 0 256 256" version="1.1" xmlns="http://www.w3.org/2000/svg" xmlns:xlink="http://www.w3.org/1999/xlink" xml:space="preserve" xmlns:serif="http://www.serif.com/" style="fill-rule:evenodd;clip-rule:evenodd;stroke-linejoin:round;stroke-miterlimit:2;"><path d="M76.154,155.985l7.786,25.259c1.743,5.725 2.476,9.727 2.179,12.006c4.26,-11.392 7.231,-23.813 8.915,-37.265l9.371,-0c-4.022,21.891 -9.331,37.8 -15.928,47.725c-5.131,7.627 -10.738,11.451 -16.86,11.451c-1.644,-0 -3.645,-0.495 -6.042,-1.466l-0,-5.27c1.169,0.158 2.536,0.258 4.121,0.258c2.853,-0 5.151,-0.793 6.894,-2.378c2.1,-1.921 3.15,-4.081 3.15,-6.478c-0,-1.644 -0.812,-4.992 -2.437,-10.084l-10.856,-33.758l9.707,-0Zm-59.532,-15.512l14.244,43.485l0.079,0l14.343,-43.485l11.709,-0c2.575,21.574 4.081,41.306 4.556,59.176l-9.885,-0c-0.337,-16.721 -1.308,-32.431 -2.873,-47.151l-0.099,0l-15.037,47.151l-7.528,-0l-14.938,-47.151l-0.079,0c-1.109,14.125 -1.823,29.855 -2.1,47.151l-9.014,-0c0.575,-21.04 2.041,-40.752 4.378,-59.176l12.244,-0Z" style="fill:#00758f;fill-rule:nonzero;"/><path d="M176.26,139.601c15.314,-0 22.981,9.787 22.981,29.36c-0,10.639 -2.298,18.682 -6.894,24.11c-0.832,0.991 -1.763,1.843 -2.714,2.635l10.836,5.369l-3.863,6.657l-14.125,-8.242c-2.338,0.694 -4.913,1.03 -7.727,1.03c-7.528,0 -13.154,-2.179 -16.859,-6.577c-4.081,-4.834 -6.122,-12.461 -6.122,-22.862c0,-10.579 2.299,-18.583 6.915,-24.031c4.18,-4.973 10.044,-7.449 17.572,-7.449m-46.952,0.079c5.487,0 10.46,1.466 14.957,4.398l-2.278,5.072c-3.844,-1.625 -7.628,-2.457 -11.372,-2.457c-3.031,0 -5.349,0.733 -6.973,2.199c-1.645,1.466 -2.655,3.329 -2.655,5.607c-0,3.507 2.496,6.557 7.112,9.113c1.506,0.832 3.011,1.664 4.517,2.516l0.852,0.476l0.515,0.297c3.487,1.961 6.775,3.843 6.775,3.843c4.616,3.269 6.914,6.756 6.914,12.501c0,5.032 -1.842,9.153 -5.507,12.362c-3.665,3.21 -8.598,4.814 -14.779,4.814c-5.765,0 -11.352,-1.842 -16.78,-5.507l2.536,-5.092c4.655,2.338 8.875,3.507 12.679,3.507c3.546,-0 6.339,-0.793 8.34,-2.358c2.001,-1.585 3.21,-3.784 3.21,-6.577c-0,-3.507 -2.437,-6.518 -6.914,-9.034c-1.407,-0.772 -2.814,-1.565 -4.2,-2.357l-0.357,-0.179c-0.634,-0.356 -1.268,-0.733 -1.882,-1.089l-0.337,-0.179c-3.031,-1.723 -5.646,-3.229 -5.646,-3.229c-4.477,-3.288 -6.736,-6.795 -6.736,-12.6c0,-4.794 1.684,-8.657 5.032,-11.609c3.348,-2.952 7.687,-4.438 12.977,-4.438m87.961,0.793l0,51.905l18.623,-0l-0,7.271l-28.073,-0l0,-59.176l9.45,-0Zm28.964,51.925l0,1.228l-2.06,0l-0,6.023l-1.565,-0l-0,-6.023l-2.12,0l-0,-1.228l5.745,-0Zm3.784,-0l1.961,4.933l1.803,-4.933l2.219,-0l0,7.251l-1.486,-0l0,-5.528l-2.04,5.528l-1.07,-0l-2.061,-5.528l-0.079,0l0,5.528l-1.387,-0l0,-7.251l2.14,-0Zm-74.728,-45.526c-9.034,-0 -13.551,7.468 -13.551,22.366c0,8.539 1.189,14.72 3.586,18.583c2.219,3.566 5.686,5.349 10.401,5.349c9.034,0 13.551,-7.508 13.551,-22.545c-0,-8.4 -1.189,-14.541 -3.586,-18.404c-2.219,-3.566 -5.686,-5.349 -10.401,-5.349" style="fill:#f29111;fill-rule:nonzero;"/><path d="M151.615,44.507c2.991,-7.369 13.472,-1.783 17.533,0.793c1.01,0.634 2.139,2.001 3.288,2.496c1.783,0.079 3.566,0.218 5.349,0.297c3.349,0.773 6.479,1.427 9.133,2.932c12.264,7.211 20.247,14.581 27.597,26.725c1.565,2.576 2.338,5.369 3.626,8.163c1.783,4.14 3.784,8.499 5.844,12.441c0.931,1.862 1.644,3.923 2.932,5.488c0.495,0.733 1.922,0.931 2.774,1.367c2.357,1.228 5.21,2.139 7.429,3.586c4.121,2.575 8.123,5.646 11.768,8.796c1.347,1.208 2.258,2.932 3.566,4.2l-0,0.653c-1.149,0.357 -2.298,0.714 -3.428,1.011c-2.496,0.634 -4.715,0.495 -7.132,1.129c-1.505,0.436 -3.367,1.01 -4.933,1.149l0.159,0.139c0.911,2.655 5.904,4.794 8.202,6.379c2.773,2.001 5.329,4.418 7.409,7.211c0.713,0.713 1.427,1.347 2.14,2.061c0.495,0.733 0.634,1.664 1.129,2.298l0,0.218c-0.555,-0.198 -0.951,-0.575 -1.327,-0.971l-0.238,-0.238c-0.218,-0.238 -0.456,-0.455 -0.713,-0.654c-1.565,-1.069 -3.13,-2.357 -4.696,-3.348c-2.714,-1.723 -5.864,-2.714 -8.637,-4.437c-1.565,-1.011 -3.071,-2.14 -4.557,-3.289c-1.367,-1.01 -2.853,-2.932 -3.704,-4.358c-0.516,-0.793 -0.575,-1.724 -1.15,-2.299c0.1,-0.951 0.971,-1.228 1.863,-1.466l0.198,-0.059c0.297,-0.079 0.594,-0.159 0.872,-0.258c3.704,-1.584 8.122,-2.139 13.828,-2.001c-0.218,-1.446 -3.784,-3.229 -4.913,-4.081c-2.299,-1.644 -4.715,-3.368 -7.132,-4.873c-1.288,-0.773 -3.507,-1.347 -4.933,-2.001c-1.922,-0.773 -6.201,-1.565 -7.271,-3.071c-1.803,-2.357 -3.11,-5.171 -4.378,-8.023l-0.337,-0.773c-0.119,-0.258 -0.238,-0.515 -0.357,-0.773c-1.486,-3.427 -3.348,-7.013 -4.834,-10.519c-0.792,-1.704 -1.149,-3.21 -2.001,-4.854c-5.21,-10.084 -12.917,-18.524 -22.248,-24.447c-3.07,-1.942 -6.498,-3.725 -10.262,-4.933c-2.139,-0.654 -4.715,-0.297 -6.993,-0.793l-1.506,0c-1.288,-0.356 -2.357,-1.723 -3.348,-2.436c-2.199,-1.506 -4.418,-2.496 -7.053,-3.566c-0.931,-0.436 -3.566,-1.447 -4.497,-0.654c-0.574,0.139 -0.852,0.357 -0.99,0.931c-0.575,0.852 -0.08,2.14 0.277,2.932c1.07,2.298 2.575,3.645 3.923,5.587c1.208,1.704 2.714,3.625 3.566,5.488c1.842,4.001 2.714,8.439 4.418,12.441c0.633,1.506 1.644,3.229 2.575,4.576c0.773,1.09 2.199,1.863 2.635,3.23c0.852,1.426 -1.288,6.141 -1.783,7.647c-1.862,5.864 -1.506,14.006 0.634,19.098l0.119,0.257l0.119,0.278c0.772,1.862 1.604,3.863 3.684,4.378c0.139,-0.139 0,-0.06 0.298,-0.139c0.495,-3.922 0.634,-7.726 2.001,-10.797c0.772,-1.922 2.337,-3.289 3.407,-4.854c0.713,0.436 0.713,1.724 1.149,2.576c0.931,2.219 1.922,4.636 3.071,6.854c2.338,4.577 4.992,9.015 7.984,13.016c0.99,1.427 2.417,3.012 3.704,4.299c0.575,0.496 1.209,0.773 1.645,1.427l0.138,-0l0,0.218c-2.139,-0.793 -3.506,-3.012 -5.21,-4.299c-3.209,-2.437 -7.053,-6.082 -9.272,-9.569c-0.931,-2.021 -1.921,-3.943 -2.932,-5.943l0,-0.139c-0.416,0.574 -0.277,1.129 -0.495,2.001c-0.911,3.566 -0.198,7.647 -3.407,8.935c-3.646,1.505 -6.36,-2.437 -7.489,-4.22c-3.645,-5.924 -4.636,-15.948 -2.08,-24.011c0.574,-1.803 0.654,-3.943 1.644,-5.369c-0.218,-1.288 -1.208,-1.644 -1.783,-2.437c-0.99,-1.347 -1.842,-2.932 -2.635,-4.438c-1.505,-2.932 -2.575,-6.438 -3.704,-9.568c-0.496,-1.288 -0.654,-2.576 -1.149,-3.804c-0.852,-1.843 -2.417,-3.705 -3.626,-5.349c-1.644,-2.358 -6.419,-6.934 -4.497,-11.59m23.377,14.007c0.198,0.198 0.436,0.356 0.674,0.535l0.277,0.178c0.376,0.277 0.753,0.555 0.991,0.931c0.356,0.515 0.416,1.011 0.851,1.506c0,1.723 -0.495,2.853 -1.505,3.566c-0,-0 -0.06,0.079 -0.139,0.158c-0.574,-1.149 -1.07,-2.298 -1.644,-3.427c-0.713,-1.01 -1.704,-1.803 -2.278,-2.932l-0.139,-0l-0,-0.159c0.852,-0.198 1.704,-0.356 2.912,-0.356" style="fill:#00758f;fill-rule:nonzero;"/></svg>