<?xml version="1.0" encoding="UTF-8" standalone="no"?><!DOCTYPE svg PUBLIC "-//W3C//DTD SVG 1.1//EN" "http://www.w3.org/Graphics/SVG/1.1/DTD/svg11.dtd"><svg width="100%" height="100%" viewBox="0 0 256 256" version="1.1" xmlns="http://www.w3.org/2000/svg" xmlns:xlink="http://www.w3.org/1999/xlink" xml:space="preserve" xmlns:serif="http://www.serif.com/" style="fill-rule:evenodd;clip-rule:evenodd;stroke-linejoin:round;stroke-miterlimit:2;"><path d="M251.407,153.237c-1.495,-4.508 -5.406,-7.671 -10.449,-8.419c-2.393,-0.363 -5.107,-0.213 -8.333,0.47c-5.641,1.154 -9.808,1.603 -12.864,1.688c11.496,-19.423 20.856,-41.56 26.24,-62.415c8.697,-33.698 4.06,-49.061 -1.389,-56.006c-14.38,-18.376 -35.364,-28.248 -60.685,-28.547c-13.504,-0.171 -25.363,2.5 -31.56,4.423c-5.748,-1.026 -11.945,-1.581 -18.441,-1.688c-12.179,-0.192 -22.949,2.457 -32.137,7.906c-5.107,-1.709 -13.269,-4.145 -22.714,-5.684c-22.18,-3.654 -40.065,-0.812 -53.142,8.441c-15.855,11.175 -23.206,30.62 -21.838,57.778c0.427,8.633 5.256,34.852 12.842,59.724c4.359,14.316 9.017,26.176 13.846,35.3c6.817,12.949 14.125,20.556 22.33,23.291c4.594,1.538 12.949,2.607 21.731,-4.701c1.111,1.346 2.586,2.692 4.573,3.931c2.5,1.582 5.555,2.864 8.611,3.633c11.026,2.756 21.347,2.073 30.15,-1.795c0.064,1.56 0.086,3.056 0.128,4.359c0.065,2.094 0.129,4.145 0.193,6.069c0.534,12.991 1.41,23.098 4.038,30.171c0.129,0.385 0.321,0.983 0.534,1.603c1.304,3.996 3.483,10.705 9.039,15.94c5.769,5.428 12.735,7.094 19.103,7.094c3.205,0 6.261,-0.406 8.932,-0.983c9.53,-2.051 20.385,-5.171 28.206,-16.325c7.414,-10.555 11.025,-26.432 11.666,-51.475c0.086,-0.705 0.171,-1.389 0.235,-2.03l0.171,-1.325l1.731,0.15l0.449,0.021c9.722,0.449 21.603,-1.602 28.911,-5c5.769,-2.671 24.252,-12.436 19.893,-25.599" style="fill-rule:nonzero;"/><path d="M234.783,155.801c-28.889,5.962 -30.877,-3.824 -30.877,-3.824c30.514,-45.279 43.27,-102.737 32.266,-116.798c-30.043,-38.355 -82.01,-20.214 -82.865,-19.744l-0.299,0.043c-5.705,-1.175 -12.094,-1.88 -19.274,-2.008c-13.077,-0.214 -22.992,3.44 -30.513,9.145c-0,0 -92.716,-38.206 -88.399,48.035c0.918,18.334 26.282,138.806 56.56,102.417c11.069,-13.291 21.753,-24.552 21.753,-24.552c5.299,3.526 11.667,5.321 18.334,4.68l0.513,-0.428c-0.171,1.646 -0.086,3.269 0.213,5.171c-7.799,8.718 -5.513,10.235 -21.111,13.462c-15.77,3.248 -6.496,9.017 -0.449,10.534c7.329,1.838 24.295,4.445 35.77,-11.602l-0.449,1.816c3.034,2.457 5.193,15.919 4.829,28.141c-0.363,12.202 -0.598,20.599 1.817,27.138c2.393,6.538 4.807,21.282 25.299,16.88c17.116,-3.654 25.984,-13.162 27.223,-29.039c0.876,-11.261 2.863,-9.594 2.991,-19.679l1.582,-4.766c1.837,-15.299 0.299,-20.235 10.833,-17.927l2.564,0.213c7.778,0.364 17.928,-1.239 23.89,-4.017c12.842,-5.961 20.47,-15.919 7.799,-13.291Z" style="fill:#336791;fill-rule:nonzero;"/><path d="M108.648,78.855c-2.607,-0.363 -4.957,-0.021 -6.154,0.877c-0.662,0.512 -0.876,1.089 -0.94,1.495c-0.15,1.069 0.598,2.265 1.068,2.885c1.304,1.731 3.227,2.906 5.107,3.184c0.278,0.043 0.556,0.043 0.812,0.043c3.163,-0 6.026,-2.458 6.282,-4.253c0.321,-2.286 -2.97,-3.782 -6.175,-4.231m86.262,0.065c-0.256,-1.774 -3.418,-2.287 -6.41,-1.859c-3.013,0.406 -5.919,1.773 -5.684,3.547c0.214,1.389 2.714,3.76 5.663,3.76c0.256,0 0.513,-0.021 0.769,-0.064c1.966,-0.256 3.419,-1.517 4.124,-2.243c1.047,-1.111 1.645,-2.329 1.538,-3.141" style="fill:#fff;fill-rule:nonzero;"/><path d="M244.399,155.118c-1.09,-3.334 -4.637,-4.402 -10.535,-3.184c-17.5,3.611 -23.761,1.111 -25.812,-0.406c13.59,-20.706 24.787,-45.749 30.812,-69.104c2.864,-11.069 4.445,-21.347 4.573,-29.723c0.15,-9.209 -1.432,-15.962 -4.658,-20.086c-13.013,-16.645 -32.138,-25.556 -55.258,-25.812c-15.919,-0.171 -29.338,3.889 -31.945,5.043c-5.491,-1.368 -11.474,-2.201 -17.991,-2.308c-11.924,-0.192 -22.244,2.671 -30.792,8.483c-3.718,-1.368 -13.312,-4.658 -25.043,-6.56c-20.278,-3.269 -36.389,-0.791 -47.885,7.351c-13.719,9.722 -20.065,27.116 -18.826,51.646c0.406,8.269 5.107,33.676 12.543,58.014c9.787,32.03 20.407,50.15 31.582,53.89c1.304,0.427 2.821,0.726 4.487,0.726c4.082,0 9.082,-1.837 14.274,-8.077c6.347,-7.628 12.906,-15.043 19.68,-22.287c4.402,2.372 9.231,3.676 14.167,3.804c0.021,0.15 0.021,0.278 0.043,0.406c-0.855,1.004 -1.688,2.03 -2.5,3.077c-3.419,4.338 -4.124,5.256 -15.15,7.521c-3.141,0.641 -11.453,2.351 -11.582,8.184c-0.128,6.368 9.851,9.06 10.984,9.338c3.953,0.983 7.778,1.475 11.41,1.475c8.846,-0 16.624,-2.907 22.842,-8.526c-0.192,22.714 0.748,45.107 3.483,51.924c2.244,5.598 7.693,19.231 24.937,19.231c2.521,-0 5.32,-0.278 8.376,-0.94c17.992,-3.868 25.812,-11.817 28.825,-29.338c1.624,-9.381 4.402,-31.753 5.706,-43.762c2.756,0.855 6.303,1.261 10.128,1.261c8.013,-0 17.244,-1.71 23.013,-4.402c6.517,-3.013 18.248,-10.428 16.112,-16.859m-42.843,-81.113c-0.064,3.547 -0.556,6.774 -1.068,10.128c-0.556,3.612 -1.133,7.351 -1.283,11.881c-0.128,4.402 0.406,8.996 0.941,13.419c1.089,8.975 2.179,18.184 -2.094,27.287c-0.706,-1.261 -1.347,-2.564 -1.881,-3.889c-0.534,-1.304 -1.688,-3.355 -3.29,-6.218c-6.219,-11.154 -20.77,-37.266 -13.334,-47.928c2.222,-3.163 7.863,-6.432 22.009,-4.68m-17.137,-60.023c20.727,0.449 37.116,8.206 48.719,23.056c8.91,11.368 -0.898,63.143 -29.274,107.802c-0.299,-0.364 -0.577,-0.727 -0.876,-1.09l-0.342,-0.449c7.329,-12.094 5.897,-24.081 4.615,-34.723c-0.534,-4.359 -1.025,-8.461 -0.897,-12.329c0.128,-4.103 0.683,-7.628 1.196,-11.026c0.641,-4.188 1.304,-8.526 1.133,-13.633c0.128,-0.534 0.171,-1.175 0.107,-1.923c-0.449,-4.914 -6.047,-19.573 -17.458,-32.864c-6.239,-7.243 -15.342,-15.385 -27.757,-20.855c5.342,-1.111 12.65,-2.137 20.834,-1.966m-115.985,156.435c-5.748,6.902 -9.701,5.577 -11.005,5.15c-8.483,-2.842 -18.312,-20.77 -26.988,-49.189c-7.521,-24.595 -11.901,-49.339 -12.243,-56.262c-1.111,-21.945 4.209,-37.223 15.791,-45.45c18.846,-13.376 49.851,-5.363 62.308,-1.303c-0.17,0.171 -0.363,0.342 -0.534,0.513c-20.449,20.641 -19.957,55.92 -19.915,58.056c0,0.834 0.064,2.03 0.171,3.633c0.342,5.94 1.005,16.988 -0.748,29.488c-1.624,11.603 1.966,22.97 9.83,31.197c0.812,0.833 1.645,1.624 2.542,2.393c-3.504,3.74 -11.111,12.03 -19.209,21.774m21.838,-29.124c-6.347,-6.624 -9.231,-15.834 -7.906,-25.257c1.837,-13.206 1.153,-24.702 0.79,-30.898c-0.043,-0.855 -0.085,-1.603 -0.128,-2.201c2.991,-2.65 16.838,-10.065 26.71,-7.8c4.487,1.026 7.244,4.082 8.376,9.36c5.898,27.308 0.791,38.676 -3.333,47.821c-0.855,1.902 -1.646,3.675 -2.329,5.513l-0.535,1.432c-1.346,3.589 -2.585,6.944 -3.376,10.128c-6.731,-0.021 -13.291,-2.906 -18.269,-8.098m1.025,36.817c-1.965,-0.492 -3.739,-1.347 -4.765,-2.052c0.855,-0.406 2.394,-0.961 5.086,-1.517c12.949,-2.671 14.957,-4.551 19.317,-10.107c1.004,-1.261 2.136,-2.714 3.718,-4.466c2.35,-2.628 3.418,-2.179 5.363,-1.367c1.56,0.641 3.098,2.628 3.718,4.786c0.299,1.026 0.641,2.97 -0.449,4.487c-9.124,12.778 -22.436,12.629 -31.988,10.236m67.822,63.099c-15.855,3.398 -21.475,-4.68 -25.171,-13.932c-2.393,-5.961 -3.569,-32.885 -2.735,-62.608c0.021,-0.406 -0.043,-0.79 -0.15,-1.154c-0.085,-0.705 -0.235,-1.41 -0.449,-2.094c-1.218,-4.316 -4.252,-7.949 -7.863,-9.444c-1.432,-0.599 -4.081,-1.688 -7.244,-0.877c0.663,-2.777 1.838,-5.94 3.12,-9.337l0.534,-1.432c0.598,-1.624 1.346,-3.291 2.137,-5.064c4.316,-9.573 10.214,-22.672 3.825,-52.287c-2.415,-11.09 -10.406,-16.497 -22.565,-15.236c-7.265,0.748 -13.932,3.675 -17.244,5.364c-0.726,0.363 -1.367,0.705 -1.987,1.047c0.94,-11.176 4.445,-32.052 17.543,-45.258c8.248,-8.312 19.231,-12.415 32.608,-12.201c26.368,0.428 43.27,13.953 52.821,25.236c8.227,9.722 12.671,19.509 14.445,24.787c-13.355,-1.368 -22.458,1.282 -27.052,7.863c-10.021,14.338 5.47,42.137 12.928,55.514c1.367,2.436 2.543,4.551 2.927,5.47c2.415,5.876 5.556,9.808 7.864,12.671c0.705,0.876 1.388,1.731 1.901,2.479c-4.06,1.154 -11.325,3.846 -10.662,17.329c-0.535,6.753 -4.338,38.42 -6.261,49.617c-2.543,14.765 -7.992,20.278 -23.27,23.547m66.155,-75.707c-4.124,1.902 -11.047,3.355 -17.628,3.654c-7.265,0.342 -10.983,-0.812 -11.838,-1.517c-0.406,-8.397 2.714,-9.273 6.026,-10.214c0.513,-0.128 1.025,-0.277 1.517,-0.448c0.299,0.256 0.62,0.491 1.004,0.726c5.834,3.868 16.24,4.274 30.962,1.24l0.15,-0.022c-1.987,1.838 -5.364,4.338 -10.193,6.581" style="fill:#fff;fill-rule:nonzero;"/></svg>