<?xml version="1.0" encoding="UTF-8" standalone="no"?><!DOCTYPE svg PUBLIC "-//W3C//DTD SVG 1.1//EN" "http://www.w3.org/Graphics/SVG/1.1/DTD/svg11.dtd"><svg width="100%" height="100%" viewBox="0 0 256 256" version="1.1" xmlns="http://www.w3.org/2000/svg" xmlns:xlink="http://www.w3.org/1999/xlink" xml:space="preserve" xmlns:serif="http://www.serif.com/" style="fill-rule:evenodd;clip-rule:evenodd;stroke-linejoin:round;stroke-miterlimit:2;"><g><path d="M246.942,28.436l-52.711,-25.379c-6.104,-2.941 -13.393,-1.697 -18.188,3.091l-172.567,157.339c-4.637,4.231 -4.637,11.541 0.013,15.765l14.095,12.818c3.799,3.451 9.523,3.707 13.616,0.602l207.811,-157.647c6.975,-5.292 16.989,-0.321 16.989,8.429l0,-0.609c0,-6.143 -3.524,-11.743 -9.058,-14.409Z" style="fill:#0065a9;fill-rule:nonzero;"/></g><g><path d="M246.942,229.035l-52.711,25.386c-6.104,2.934 -13.393,1.697 -18.188,-3.091l-172.567,-157.346c-4.637,-4.231 -4.637,-11.54 0.013,-15.765l14.095,-12.811c3.799,-3.458 9.523,-3.713 13.616,-0.609l207.811,157.654c6.975,5.285 16.989,0.314 16.989,-8.436l0,0.616c0,6.137 -3.524,11.737 -9.058,14.402Z" style="fill:#007acc;fill-rule:nonzero;"/></g><g><path d="M194.231,254.421c-6.104,2.941 -13.393,1.697 -18.188,-3.091c5.901,5.901 15.994,1.722 15.994,-6.628l0,-231.932c0,-8.345 -10.093,-12.523 -15.994,-6.622c4.795,-4.788 12.084,-6.032 18.188,-3.098l52.704,25.347c5.541,2.665 9.065,8.265 9.065,14.409l0,171.86c0,6.143 -3.524,11.749 -9.065,14.409l-52.704,25.346Z" style="fill:#1f9cf0;fill-rule:nonzero;"/></g></svg>