<?xml version="1.0" encoding="UTF-8" standalone="no"?><!DOCTYPE svg PUBLIC "-//W3C//DTD SVG 1.1//EN" "http://www.w3.org/Graphics/SVG/1.1/DTD/svg11.dtd"><svg width="100%" height="100%" viewBox="0 0 256 256" version="1.1" xmlns="http://www.w3.org/2000/svg" xmlns:xlink="http://www.w3.org/1999/xlink" xml:space="preserve" xmlns:serif="http://www.serif.com/" style="fill-rule:evenodd;clip-rule:evenodd;stroke-linejoin:round;stroke-miterlimit:2;"><g><clipPath id="_clip1"><path d="M29.513,34.16c29.626,-8.727 73.507,-21.812 92.014,-27.336c5.727,-1.709 11.782,-1.723 17.517,-0.043c17.829,5.22 59.299,17.419 91.365,27.283c6.487,1.995 10.911,8.107 10.749,14.892c-3.704,156.786 -82.833,194.398 -105.107,201.895c-3.808,1.282 -7.767,1.285 -11.58,0.014c-22.382,-7.461 -102.167,-44.993 -105.971,-201.692c-0.167,-6.89 4.402,-13.065 11.013,-15.013Z" clip-rule="nonzero"/></clipPath><g clip-path="url(#_clip1)"><path d="M130.262,124.862l-1.747,-125.018l119.772,32.347l-118.025,92.671Z" style="fill:url(#_Linear2);fill-rule:nonzero;"/><path d="M130.264,124.862l0,-120.647l-114.527,30.599l-15.737,74.311l49.832,77.808l80.432,-62.071Z" style="fill:url(#_Linear3);fill-rule:nonzero;"/><path d="M244.79,34.814l-196.706,152.119l-0,69.067l194.083,0l2.623,-221.186Z" style="fill:url(#_Linear4);fill-rule:nonzero;"/></g></g><defs><linearGradient id="_Linear2" x1="0" y1="0" x2="1" y2="0" gradientUnits="userSpaceOnUse" gradientTransform="matrix(83.9288,55.0779,-55.0779,83.9288,130.262,4.21509)"><stop offset="0" style="stop-color:#19aae8;stop-opacity:1"/><stop offset="1" style="stop-color:#1ea5f1;stop-opacity:1"/></linearGradient><linearGradient id="_Linear3" x1="0" y1="0" x2="1" y2="0" gradientUnits="userSpaceOnUse" gradientTransform="matrix(111.03,85.6765,-85.6765,111.03,19.2336,37.4367)"><stop offset="0" style="stop-color:#2be2b8;stop-opacity:1"/><stop offset="1" style="stop-color:#19b9e3;stop-opacity:1"/></linearGradient><linearGradient id="_Linear4" x1="0" y1="0" x2="1" y2="0" gradientUnits="userSpaceOnUse" gradientTransform="matrix(-145.125,201.077,-201.077,-145.125,240.418,35.6881)"><stop offset="0" style="stop-color:#925cdf;stop-opacity:1"/><stop offset="1" style="stop-color:#cc42e5;stop-opacity:1"/></linearGradient></defs></svg>