<?xml version="1.0" encoding="UTF-8" standalone="no"?><!DOCTYPE svg PUBLIC "-//W3C//DTD SVG 1.1//EN" "http://www.w3.org/Graphics/SVG/1.1/DTD/svg11.dtd"><svg width="100%" height="100%" viewBox="0 0 256 256" version="1.1" xmlns="http://www.w3.org/2000/svg" xmlns:xlink="http://www.w3.org/1999/xlink" xml:space="preserve" xmlns:serif="http://www.serif.com/" style="fill-rule:evenodd;clip-rule:evenodd;stroke-linejoin:round;stroke-miterlimit:2;"><path d="M242.667,0l-229.334,0l20.267,228.8l94.4,27.2l94.4,-27.2l20.267,-228.8Z" style="fill:#0277bd;fill-rule:nonzero;"/><path d="M128,20.267l0,214.933l75.2,-21.333l17.067,-193.6l-92.267,-0Z" style="fill:#039be5;fill-rule:nonzero;"/><path d="M189.333,53.867l-61.333,-0l0,27.2l33.067,-0l-2.134,27.2l-30.933,-0l-0,27.2l29.867,-0l-2.134,30.4l-27.733,8.533l-0,28.267l53.333,-17.6l4.8,-77.334l3.2,-53.866Z" style="fill:#fff;fill-rule:nonzero;"/><path d="M128,53.867l0,27.2l-59.733,-0l-2.134,-27.2l61.867,-0Zm-30.933,53.866l1.6,27.2l29.333,0l0,-27.2l-30.933,0Zm2.666,40.534l-27.2,-0l2.134,36.8l53.333,17.6l0,-28.267l-27.733,-9.6l-0.534,-16.533Z" style="fill:#eee;fill-rule:nonzero;"/></svg>