<?xml version="1.0" encoding="UTF-8" standalone="no"?><!DOCTYPE svg PUBLIC "-//W3C//DTD SVG 1.1//EN" "http://www.w3.org/Graphics/SVG/1.1/DTD/svg11.dtd"><svg width="100%" height="100%" viewBox="0 0 256 256" version="1.1" xmlns="http://www.w3.org/2000/svg" xmlns:xlink="http://www.w3.org/1999/xlink" xml:space="preserve" xmlns:serif="http://www.serif.com/" style="fill-rule:evenodd;clip-rule:evenodd;stroke-linejoin:round;stroke-miterlimit:2;"><path d="M256,28c0,-15.454 -12.546,-28 -28,-28l-200,0c-15.454,0 -28,12.546 -28,28l0,200c0,15.454 12.546,28 28,28l200,0c15.454,0 28,-12.546 28,-28l0,-200Z" style="fill:#092e20;"/><path d="M186.377,94.198l-0,66.226c-0,22.819 -1.669,33.764 -6.678,43.225c-4.639,9.092 -10.761,14.842 -23.375,21.15l-26.529,-12.615c12.615,-5.936 18.737,-11.129 22.632,-19.109c4.082,-8.162 5.382,-17.624 5.382,-42.482l-0,-56.395l28.568,-0Zm-45.448,-44.119l-0,132.238c-14.656,2.783 -25.416,3.895 -37.103,3.895c-34.877,0 -53.057,-15.767 -53.057,-46.007c-0,-29.126 19.294,-48.047 49.161,-48.047c4.637,0 8.162,0.37 12.429,1.483l0,-43.562l28.57,-0Zm-38.216,65.081c-14.47,0 -22.819,8.905 -22.819,24.487c0,15.214 7.978,23.561 22.634,23.561c3.152,0 5.75,-0.185 9.831,-0.74l0,-45.825c-3.339,-1.112 -6.121,-1.483 -9.646,-1.483Zm83.664,-64.929l-0,29.311l-28.568,0l-0,-29.311l28.568,-0Z" style="fill:#fffffd;fill-rule:nonzero;"/></svg>