<?xml version="1.0" encoding="UTF-8" standalone="no"?><!DOCTYPE svg PUBLIC "-//W3C//DTD SVG 1.1//EN" "http://www.w3.org/Graphics/SVG/1.1/DTD/svg11.dtd"><svg width="100%" height="100%" viewBox="0 0 256 256" version="1.1" xmlns="http://www.w3.org/2000/svg" xmlns:xlink="http://www.w3.org/1999/xlink" xml:space="preserve" xmlns:serif="http://www.serif.com/" style="fill-rule:evenodd;clip-rule:evenodd;stroke-linejoin:round;stroke-miterlimit:2;"><rect x="0" y="0" width="256" height="256" style="fill:#eee;"/><path d="M244,191.766c-8.217,1.933 -13.533,-0 -18.367,-6.767l-33.35,-45.917l-4.833,-6.283l-38.667,52.683c-4.35,6.284 -9.183,9.184 -17.4,6.767l49.784,-67.183l-46.4,-60.417c7.733,-1.45 13.533,-0.967 18.366,6.283l34.317,46.884l34.8,-46.4c4.35,-6.284 9.183,-8.7 17.4,-6.284l-17.883,23.684l-24.167,31.9c-2.9,3.866 -2.417,6.283 -0,9.666l46.4,61.384Zm-232,-68.15l4.35,-19.817c10.633,-39.633 56.55,-56.067 87.483,-31.417c18.367,14.5 22.717,34.8 21.75,57.517l-102.95,0c-1.45,41.083 28.034,65.733 65.734,53.167c13.05,-4.35 21.266,-14.984 25.133,-27.55c1.933,-6.284 5.317,-7.734 11.6,-5.8c-2.9,16.433 -10.15,29.966 -25.133,38.183c-22.234,12.567 -54.134,8.7 -70.567,-9.183c-10.15,-10.15 -14.017,-23.2 -15.95,-37.217c-0.483,-2.417 -0.967,-4.35 -1.45,-6.767l-0,-11.116Zm11.117,-2.417l93.283,0c-0.483,-29.483 -19.333,-50.75 -44.467,-51.233c-28.033,-0 -47.85,20.3 -48.816,51.233Z" style="fill-rule:nonzero;"/></svg>