<?xml version="1.0" encoding="UTF-8" standalone="no"?><!DOCTYPE svg PUBLIC "-//W3C//DTD SVG 1.1//EN" "http://www.w3.org/Graphics/SVG/1.1/DTD/svg11.dtd"><svg width="100%" height="100%" viewBox="0 0 256 256" version="1.1" xmlns="http://www.w3.org/2000/svg" xmlns:xlink="http://www.w3.org/1999/xlink" xml:space="preserve" xmlns:serif="http://www.serif.com/" style="fill-rule:evenodd;clip-rule:evenodd;stroke-linejoin:round;stroke-miterlimit:2;"><path d="M156.494,92.493l-25.565,23.967l-23.967,-47.934l12.25,-27.695c3.196,-5.326 7.989,-5.326 11.185,0l26.097,51.662Z" style="fill:#ffa000;fill-rule:nonzero;"/><path d="M107.495,68.526l23.967,47.934l-95.867,88.943l71.9,-136.877Z" style="fill:#f57f17;fill-rule:nonzero;"/><path d="M184.721,56.277c4.794,-4.261 9.055,-2.663 10.652,3.195l25.032,144.866l-82.552,49.532c-2.663,1.597 -10.652,2.13 -10.652,2.13c0,-0 -6.924,-1.065 -9.587,-2.13l-82.019,-48.467l149.126,-149.126Z" style="fill:#ffca28;fill-rule:nonzero;"/><path d="M107.495,68.526l-71.9,136.877l31.955,-200.256c1.066,-6.391 4.794,-6.923 7.989,-1.597l31.956,64.976Z" style="fill:#ffa000;fill-rule:nonzero;"/></svg>