<?xml version="1.0" encoding="UTF-8" standalone="no"?><!DOCTYPE svg PUBLIC "-//W3C//DTD SVG 1.1//EN" "http://www.w3.org/Graphics/SVG/1.1/DTD/svg11.dtd"><svg width="100%" height="100%" viewBox="0 0 256 256" version="1.1" xmlns="http://www.w3.org/2000/svg" xmlns:xlink="http://www.w3.org/1999/xlink" xml:space="preserve" xmlns:serif="http://www.serif.com/" style="fill-rule:evenodd;clip-rule:evenodd;stroke-linejoin:round;stroke-miterlimit:2;"><path d="M251.2,116.8l-111.6,-112c-6.4,-6.4 -16.8,-6.4 -23.2,-0l-23.6,23.2l29.6,29.6c6.8,-2.4 14.8,-0.8 20,4.8c5.2,5.2 7.2,13.2 4.8,20.4l28.4,28.4c6.8,-2.4 14.8,-0.8 20.4,4.8c7.6,7.6 7.6,20 0,27.6c-7.6,7.6 -20,7.6 -27.6,0c-5.6,-5.6 -7.2,-14.4 -4.4,-21.2l-26.4,-26.4l0,69.6c2,0.8 3.6,2.4 5.2,3.6c7.6,7.6 7.6,20 0,27.6c-7.6,7.6 -20,7.6 -27.6,0c-7.6,-7.6 -7.6,-20 0,-27.6c2,-2 4,-3.2 6.4,-4.4l0,-70.4c-2.4,-0.8 -4.4,-2.4 -6.4,-4.4c-5.6,-5.6 -7.2,-14 -4.4,-21.6l-29.2,-29.2l-76.8,76.8c-6.4,6.4 -6.4,16.8 -0,23.2l111.6,111.6c6.4,6.4 16.8,6.4 23.2,0l111.6,-110.8c6.4,-6.4 6.4,-16.8 0,-23.2" style="fill:#f03c2e;fill-rule:nonzero;"/></svg>