<?xml version="1.0" encoding="UTF-8" standalone="no"?><!DOCTYPE svg PUBLIC "-//W3C//DTD SVG 1.1//EN" "http://www.w3.org/Graphics/SVG/1.1/DTD/svg11.dtd"><svg width="100%" height="100%" viewBox="0 0 25 24" version="1.1" xmlns="http://www.w3.org/2000/svg" xmlns:xlink="http://www.w3.org/1999/xlink" xml:space="preserve" xmlns:serif="http://www.serif.com/" style="fill-rule:evenodd;clip-rule:evenodd;stroke-linejoin:round;stroke-miterlimit:2;"><path d="M24.545,9.5l-0.034,-0.09l-3.391,-8.848c-0.136,-0.339 -0.466,-0.562 -0.831,-0.562c-0.4,-0 -0.754,0.268 -0.863,0.653l-2.29,7.01l-9.273,0l-2.289,-7.01c-0.111,-0.383 -0.464,-0.648 -0.863,-0.648c-0.364,-0 -0.694,0.221 -0.831,0.558l-3.39,8.848l-0.035,0.089c-1,2.613 -0.144,5.594 2.09,7.278l0.042,0.032l5.159,3.867l2.56,1.935l1.554,1.176c0.374,0.283 0.894,0.283 1.268,-0l1.555,-1.176l2.56,-1.935l5.197,-3.89l0.014,-0.01c2.234,-1.684 3.09,-4.664 2.091,-7.277Z" style="fill:#e24329;fill-rule:nonzero;"/><path d="M24.545,9.5l-0.034,-0.09c-1.652,0.339 -3.21,1.04 -4.56,2.051l-7.447,5.632l4.742,3.584l5.197,-3.89l0.014,-0.01c2.233,-1.685 3.088,-4.665 2.088,-7.277Z" style="fill:#fc6d26;fill-rule:nonzero;"/><path d="M7.745,20.677l2.56,1.935l1.555,1.176c0.374,0.283 0.894,0.283 1.268,-0l1.555,-1.176l2.56,-1.935l-4.743,-3.584l-4.755,3.584Z" style="fill:#fca326;fill-rule:nonzero;"/><path d="M5.049,11.461c-1.35,-1.011 -2.908,-1.711 -4.56,-2.05l-0.034,0.089c-1,2.613 -0.144,5.594 2.09,7.278l0.042,0.032l5.159,3.867l4.745,-3.584l-7.443,-5.632l0.001,0Z" style="fill:#fc6d26;fill-rule:nonzero;"/></svg>