<?xml version="1.0" encoding="UTF-8" standalone="no"?><!DOCTYPE svg PUBLIC "-//W3C//DTD SVG 1.1//EN" "http://www.w3.org/Graphics/SVG/1.1/DTD/svg11.dtd"><svg width="100%" height="100%" viewBox="0 0 256 256" version="1.1" xmlns="http://www.w3.org/2000/svg" xmlns:xlink="http://www.w3.org/1999/xlink" xml:space="preserve" xmlns:serif="http://www.serif.com/" style="fill-rule:evenodd;clip-rule:evenodd;stroke-linejoin:round;stroke-miterlimit:2;"><path d="M242.667,0l-229.334,0l20.267,228.8l94.4,27.2l94.4,-27.2l20.267,-228.8Z" style="fill:#e65100;fill-rule:nonzero;"/><path d="M128,20.267l0,214.933l75.2,-21.333l17.067,-193.6l-92.267,-0Z" style="fill:#ff6d00;fill-rule:nonzero;"/><path d="M128,134.933l0,-27.2l58.133,0l-4.8,77.334l-53.333,17.6l0,-28.267l27.733,-9.6l2.134,-30.4c-0,0.533 -29.867,0.533 -29.867,0.533Zm59.733,-53.866l2.134,-27.2l-61.867,-0l0,27.2l59.733,-0Z" style="fill:#fff;fill-rule:nonzero;"/><path d="M128,174.4l0,28.267l-53.333,-17.6l-2.667,-36.8l27.2,-0l1.6,17.066l27.2,9.067Zm-33.067,-93.333l33.067,-0l0,-27.2l-61.333,-0l4.8,81.066l56.533,0l0,-27.2l-30.933,0l-2.134,-26.666Z" style="fill:#eee;fill-rule:nonzero;"/></svg>