<?xml version="1.0" encoding="UTF-8" standalone="no"?><!DOCTYPE svg PUBLIC "-//W3C//DTD SVG 1.1//EN" "http://www.w3.org/Graphics/SVG/1.1/DTD/svg11.dtd"><svg width="100%" height="100%" viewBox="0 0 256 256" version="1.1" xmlns="http://www.w3.org/2000/svg" xmlns:xlink="http://www.w3.org/1999/xlink" xml:space="preserve" xmlns:serif="http://www.serif.com/" style="fill-rule:evenodd;clip-rule:evenodd;stroke-linejoin:round;stroke-miterlimit:2;"><rect x="0" y="0" width="256" height="256" style="fill:#ffd600;fill-rule:nonzero;"/><path d="M167.467,191.467c4.8,8 10.133,15.466 21.333,15.466c9.6,0 14.4,-4.8 14.4,-11.2c-0,-8 -5.333,-10.666 -15.467,-14.933l-5.866,-2.667c-16.534,-6.933 -27.2,-15.466 -27.2,-34.133c-0,-17.067 13.333,-30.4 33.6,-30.4c14.4,-0 25.066,4.8 32.533,18.133l-18.133,11.2c-3.734,-6.933 -8,-9.6 -14.934,-9.6c-6.933,0 -11.2,4.267 -11.2,9.6c0,6.934 4.267,9.6 13.867,13.867l5.867,2.667c19.733,8.533 30.4,17.066 30.4,35.733c-0,20.8 -16,32 -37.867,32c-21.333,-0 -33.6,-10.667 -40,-24l18.667,-11.733Zm-82.667,0.533c3.733,6.4 9.067,11.2 17.067,11.2c7.466,0 11.733,-3.2 11.733,-14.4l-0,-75.2l23.467,0l-0,78.933c-0,24 -13.867,34.667 -34.134,34.667c-18.133,0 -31.466,-12.267 -36.8,-24l18.667,-11.2Z" style="fill:#000001;fill-rule:nonzero;"/></svg>