<?xml version="1.0" encoding="UTF-8" standalone="no"?><!DOCTYPE svg PUBLIC "-//W3C//DTD SVG 1.1//EN" "http://www.w3.org/Graphics/SVG/1.1/DTD/svg11.dtd"><svg width="100%" height="100%" viewBox="0 0 256 256" version="1.1" xmlns="http://www.w3.org/2000/svg" xmlns:xlink="http://www.w3.org/1999/xlink" xml:space="preserve" xmlns:serif="http://www.serif.com/" style="fill-rule:evenodd;clip-rule:evenodd;stroke-linejoin:round;stroke-miterlimit:2;"><path d="M131.148,0c-10.667,0 -17.6,1.067 -26.667,2.667c-26.133,4.266 -30.4,13.866 -30.4,31.466l0,26.667l60.8,-0l0,13.333l-92.267,0c-17.6,0 -33.066,8.534 -38.4,28.267c-5.333,22.933 -5.866,37.333 0,61.333c4.267,18.134 14.4,31.467 32,31.467l24.534,-0l-0,-34.133c-0,-19.734 18.133,-39.467 38.933,-39.467l48.533,0c17.067,0 33.6,-12.8 33.6,-29.333l0,-58.134c0,-16.533 -11.733,-28.8 -28.266,-31.466c0.533,-0 -11.734,-2.667 -22.4,-2.667Zm-33.6,27.2c5.333,-0 10.133,4.8 10.133,10.133c0,5.867 -4.8,10.134 -10.133,10.134c-5.867,-0 -10.134,-4.267 -10.134,-10.134c0,-5.866 4.8,-10.133 10.134,-10.133Z" style="fill:#0277bd;fill-rule:nonzero;"/><path d="M124.748,256c10.666,0 17.6,-1.067 26.666,-2.667c26.134,-4.266 30.4,-13.866 30.4,-31.466l0,-26.667l-60.8,0l0,-13.333l92.267,-0c17.6,-0 33.067,-8.534 38.4,-28.267c5.333,-22.933 5.867,-37.333 0,-61.333c-4.267,-18.134 -14.4,-31.467 -32,-31.467l-24.533,0l-0,34.133c-0,19.734 -18.134,39.467 -38.934,39.467l-48.533,0c-17.067,0 -33.6,12.8 -33.6,29.333l0,57.6c0,16.534 11.733,28.8 28.267,31.467c-0.534,0.533 11.733,3.2 22.4,3.2Zm33.6,-27.2c-5.334,0 -10.134,-4.8 -10.134,-10.133c0,-5.867 4.8,-10.134 10.134,-10.134c5.866,0 10.133,4.267 10.133,10.134c0,5.866 -4.8,10.133 -10.133,10.133Z" style="fill:#ffc107;fill-rule:nonzero;"/></svg>