<?xml version="1.0" encoding="UTF-8" standalone="no"?><!DOCTYPE svg PUBLIC "-//W3C//DTD SVG 1.1//EN" "http://www.w3.org/Graphics/SVG/1.1/DTD/svg11.dtd"><svg width="100%" height="100%" viewBox="0 0 256 256" version="1.1" xmlns="http://www.w3.org/2000/svg" xmlns:xlink="http://www.w3.org/1999/xlink" xml:space="preserve" xmlns:serif="http://www.serif.com/" style="fill-rule:evenodd;clip-rule:evenodd;stroke-linejoin:round;stroke-miterlimit:2;"><circle cx="128" cy="128.188" r="22.933" style="fill:#00d8ff;"/><path d="M128,180.455c-32,-0 -60.267,-3.733 -81.6,-11.2c-13.867,-4.8 -25.067,-10.667 -33.6,-18.133c-8.533,-6.934 -12.8,-15.467 -12.8,-22.934c0,-14.933 16.533,-29.866 44.267,-39.466c22.933,-8 52.8,-12.267 83.733,-12.267c30.4,-0 59.733,4.267 82.667,12.267c13.333,4.8 24.533,10.666 32.533,17.066c8.533,6.4 12.8,14.4 12.8,22.4c0,16 -18.667,31.467 -48.533,41.6c-20.8,6.934 -49.067,10.667 -79.467,10.667Zm0,-93.333c-29.333,-0 -58.667,4.266 -80,11.733c-25.6,9.067 -37.333,21.333 -37.333,29.333c-0,8.534 12.266,21.867 39.466,30.934c19.734,6.933 46.934,10.666 77.867,10.666c28.8,0 56,-3.733 76.267,-10.133c28.266,-10.133 41.066,-23.467 41.066,-31.467c0,-4.266 -3.2,-9.6 -9.066,-14.4c-6.934,-5.866 -17.067,-11.2 -28.8,-14.933c-21.867,-8 -50.134,-11.733 -79.467,-11.733Z" style="fill:#00d8ff;fill-rule:nonzero;"/><path d="M76.267,242.322c-4.8,-0 -8.534,-1.067 -12.267,-3.2c-13.333,-7.467 -17.6,-29.334 -12.267,-58.134c4.267,-24 15.467,-51.733 30.934,-78.933c15.466,-26.667 33.6,-49.6 51.733,-65.6c10.667,-9.067 21.333,-16 30.933,-19.733c10.667,-3.734 19.734,-3.734 26.134,-0c13.866,8 18.133,32 11.733,62.933c-4.267,21.867 -15.467,48.533 -30.4,74.667c-16,27.733 -33.6,50.133 -50.133,65.066c-10.667,9.6 -21.867,16.534 -32.534,20.267c-4.8,1.6 -9.6,2.667 -13.866,2.667Zm16,-134.934c-14.934,25.6 -25.6,52.8 -29.867,75.2c-5.333,26.667 0,42.667 6.933,46.934c1.6,1.066 4.267,1.6 6.934,1.6c9.066,-0 23.466,-5.867 40,-20.267c16,-13.867 32.533,-35.2 48,-62.4c14.4,-25.067 25.066,-50.667 29.333,-71.467c5.867,-29.333 1.067,-46.933 -6.4,-51.2c-3.733,-2.133 -9.6,-2.133 -17.067,1.067c-8.533,3.2 -18.133,9.067 -27.733,17.6c-17.6,15.467 -35.2,37.867 -50.133,62.933" style="fill:#00d8ff;fill-rule:nonzero;"/><path d="M179.733,242.322c-12.266,-0 -28.266,-7.467 -44.8,-21.867c-18.133,-16 -36.8,-39.467 -52.8,-66.133c-15.466,-26.667 -26.133,-53.867 -30.933,-77.867c-2.667,-13.867 -3.2,-26.667 -1.6,-36.8c2.133,-11.2 6.4,-19.2 13.333,-22.933c13.867,-8 36.8,-0 60.267,21.333c16.533,14.933 34.133,37.333 49.6,63.467c16,27.733 27.2,53.866 31.467,75.733c2.666,14.4 3.2,27.2 1.066,37.867c-2.133,11.2 -6.933,19.2 -13.866,23.466c-3.2,2.667 -6.934,3.734 -11.734,3.734Zm-87.466,-93.334c14.933,25.6 33.066,48.534 50.133,63.467c20.8,17.6 36.8,21.333 44.267,17.6c7.466,-4.267 12.8,-21.867 6.933,-49.6c-4.267,-20.8 -14.4,-45.867 -29.867,-72.533c-14.4,-25.067 -31.466,-46.934 -46.933,-60.8c-22.4,-20.267 -40.533,-24.534 -48,-20.267c-3.733,2.133 -6.4,7.467 -8,15.467c-1.6,9.066 -1.067,20.266 1.6,32.533c4.267,21.867 14.933,48.533 29.867,74.133Z" style="fill:#00d8ff;fill-rule:nonzero;"/></svg>