<?xml version="1.0" encoding="UTF-8" standalone="no"?><!DOCTYPE svg PUBLIC "-//W3C//DTD SVG 1.1//EN" "http://www.w3.org/Graphics/SVG/1.1/DTD/svg11.dtd"><svg width="100%" height="100%" viewBox="0 0 256 256" version="1.1" xmlns="http://www.w3.org/2000/svg" xmlns:xlink="http://www.w3.org/1999/xlink" xml:space="preserve" xmlns:serif="http://www.serif.com/" style="fill-rule:evenodd;clip-rule:evenodd;stroke-linejoin:round;stroke-miterlimit:2;"><rect x="0" y="0" width="256" height="256" style="fill:#1976d2;"/><path d="M153.067,113.6l-94.4,-0l-0,23.467l33.6,-0l-0,104.533l26.666,-0l0,-104.533l34.134,-0l-0,-23.467Z" style="fill:#fff;fill-rule:nonzero;"/><path d="M236.267,142.933c-0,0 -12.8,-8.533 -27.2,-8.533c-14.4,-0 -19.734,6.933 -19.734,13.867c0,18.666 52.267,17.066 52.267,54.933c-0,58.133 -80,32.533 -80,32.533l-0,-27.733c-0,0 15.467,11.733 33.6,11.733c18.133,0 17.6,-12.266 17.6,-13.866c-0,-17.6 -52.267,-17.6 -52.267,-56c0,-52.267 75.734,-32 75.734,-32l-0,25.066Z" style="fill:#fff;fill-rule:nonzero;"/></svg>