<?xml version="1.0" standalone="no"?>
<!DOCTYPE svg PUBLIC "-//W3C//DTD SVG 20010904//EN"
 "http://www.w3.org/TR/2001/REC-SVG-20010904/DTD/svg10.dtd">
<svg version="1.0" xmlns="http://www.w3.org/2000/svg"
 width="500.000000pt" height="500.000000pt" viewBox="0 0 500.000000 500.000000"
 preserveAspectRatio="xMidYMid meet">

<g transform="translate(0.000000,500.000000) scale(0.100000,-0.100000)"
fill="#FFFFFF" stroke="none">
<path d="M0 2500 l0 -2500 2500 0 2500 0 0 2500 0 2500 -2500 0 -2500 0 0
-2500z m1949 1404 c29 -6 31 -10 31 -48 l0 -41 -320 3 -320 3 0 -1095 0 -1096
295 0 295 0 0 23 c0 37 99 2055 106 2155 l6 93 66 -3 66 -3 170 -395 c94 -217
259 -597 365 -843 107 -246 197 -444 201 -440 23 25 80 259 80 326 0 26 2 27
55 27 64 0 61 7 40 -116 -20 -113 -49 -209 -92 -303 l-33 -73 97 -225 c67
-155 100 -221 106 -212 5 8 228 518 495 1134 l487 1120 68 3 c65 3 67 2 67
-21 0 -13 22 -537 50 -1163 27 -627 50 -1149 50 -1161 0 -21 -5 -23 -45 -23
-41 0 -45 2 -45 24 0 50 -100 2181 -103 2190 -2 5 -221 -491 -487 -1103 l-485
-1111 -59 2 -60 3 -95 219 c-53 120 -99 219 -103 220 -4 0 -31 -27 -61 -62
-101 -117 -232 -206 -406 -276 -35 -14 -79 -28 -97 -32 l-34 -6 0 44 0 44 98
38 c53 20 128 55 165 78 129 78 299 262 283 305 -28 74 -710 1632 -713 1629
-2 -2 -28 -498 -59 -1102 -30 -604 -56 -1099 -57 -1099 -1 0 -176 1 -389 3
l-388 4 0 1184 0 1184 339 0 c186 0 353 -3 370 -6z m458 -88 c105 -35 237
-102 311 -159 198 -153 318 -362 367 -641 22 -132 24 -126 -39 -126 l-53 0 -7
65 c-9 84 -48 234 -81 308 -100 228 -280 386 -534 471 l-66 23 -3 48 c-2 36 0
46 10 43 7 -3 50 -17 95 -32z"/>
</g>
</svg>
